<?xml version="1.0" encoding="utf-8"?><svg xmlns="http://www.w3.org/2000/svg" xmlns:xlink="http://www.w3.org/1999/xlink"><symbol viewBox="0 0 24 24" id="facebook" xmlns="http://www.w3.org/2000/svg"><g clip-path="url(#aa)"><path d="M9.65 21.6v-9.01H7.2V9.348h2.45v-2.77c0-2.178 1.448-4.177 4.784-4.177 1.35 0 2.35.126 2.35.126l-.08 3.029s-1.018-.01-2.13-.01c-1.202 0-1.395.54-1.395 1.434v2.368H16.8l-.157 3.244h-3.464V21.6H9.651z"/></g><defs><clipPath id="aa"><path transform="translate(7.2 2.4)" d="M0 0h9.6v19.2H0z"/></clipPath></defs></symbol><symbol viewBox="0 0 24 24" id="instagram" xmlns="http://www.w3.org/2000/svg"><g clip-path="url(#ba)"><path d="M12 8.81A3.197 3.197 0 008.81 12 3.197 3.197 0 0012 15.19 3.197 3.197 0 0015.19 12 3.197 3.197 0 0012 8.81zM21.568 12c0-1.32.012-2.63-.063-3.949-.074-1.531-.423-2.89-1.543-4.01-1.122-1.123-2.48-1.47-4.011-1.544-1.321-.074-2.63-.062-3.949-.062-1.32 0-2.63-.012-3.948.062-1.532.074-2.891.424-4.011 1.544-1.122 1.122-1.47 2.479-1.544 4.01-.074 1.321-.062 2.63-.062 3.949s-.012 2.63.062 3.949c.075 1.531.424 2.89 1.544 4.01 1.122 1.123 2.48 1.47 4.01 1.544 1.322.074 2.63.062 3.95.062 1.32 0 2.63.012 3.948-.062 1.532-.074 2.89-.424 4.01-1.544 1.123-1.122 1.47-2.479 1.544-4.01.077-1.319.063-2.628.063-3.949zM12 16.908A4.901 4.901 0 017.092 12 4.901 4.901 0 0112 7.092 4.901 4.901 0 0116.908 12 4.901 4.901 0 0112 16.908zm5.11-8.87a1.145 1.145 0 01-1.147-1.147c0-.634.512-1.146 1.146-1.146a1.145 1.145 0 01.811 1.957 1.146 1.146 0 01-.81.335z"/></g><defs><clipPath id="ba"><path transform="translate(2.4 2.4)" d="M0 0h19.2v19.2H0z"/></clipPath></defs></symbol><symbol viewBox="0 0 24 24" id="twitter" xmlns="http://www.w3.org/2000/svg"><g clip-path="url(#ca)"><path d="M21.301 6.521a7.788 7.788 0 01-2.233.612 3.898 3.898 0 001.71-2.152 7.763 7.763 0 01-2.47.944 3.89 3.89 0 00-6.626 3.547A11.043 11.043 0 013.666 5.41 3.89 3.89 0 004.87 10.6a3.88 3.88 0 01-1.761-.487v.05a3.89 3.89 0 003.12 3.814 3.917 3.917 0 01-1.757.066 3.891 3.891 0 003.633 2.7 7.803 7.803 0 01-4.83 1.666c-.31 0-.62-.018-.928-.055a11 11 0 005.96 1.747c7.154 0 11.065-5.925 11.065-11.064 0-.167-.004-.335-.012-.502a7.906 7.906 0 001.94-2.012l.001-.003z"/></g><defs><clipPath id="ca"><path transform="translate(2.4 2.4)" d="M0 0h19.2v19.2H0z"/></clipPath></defs></symbol><symbol viewBox="0 0 16 16" id="volume_off" xmlns="http://www.w3.org/2000/svg"><path d="M11 8a3 3 0 00-1.667-2.687v1.474l1.634 1.633c.02-.133.033-.273.033-.42zm1.667 0c0 .627-.134 1.213-.36 1.76l1.006 1.007C13.753 9.94 14 9 14 8a5.998 5.998 0 00-4.667-5.847v1.374A4.67 4.67 0 0112.667 8zm-9.82-6L2 2.847 5.153 6H2v4h2.667L8 13.333V8.847l2.833 2.833c-.446.347-.946.62-1.5.787v1.373a5.992 5.992 0 002.46-1.207L13.153 14l.847-.847-6-6L2.847 2zM8 2.667L6.607 4.06 8 5.453V2.667z"/></symbol><symbol viewBox="0 0 16 16" id="volume_up" xmlns="http://www.w3.org/2000/svg"><path d="M2 6v4h2.667L8 13.333V2.667L4.667 6H2zm9 2a3 3 0 00-1.667-2.687v5.367A2.983 2.983 0 0011 8zM9.333 2.153v1.374A4.67 4.67 0 0112.667 8a4.67 4.67 0 01-3.334 4.473v1.374A5.998 5.998 0 0014 8a5.998 5.998 0 00-4.667-5.847z"/></symbol></svg>